PathFileType	4	(X/Y/Z)	Patient4_TMGait_0pt5_02_right_32.trc.trc
DataRate	CameraRate	NumFrames	NumMarkers	Units	OrigDataRate	OrigDataStartFrame	OrigNumFrames
75.268817204301	75.268817204301	4	33	mm	75.268817204301	18	       141
Frame#	Time	Sacral			L.Shoulder			Chest			R.Shoulder			Neck			R.ASIS			L.ASIS			R.Thigh.Superior			R.Thigh.Lateral			R.Thigh.Inferior			R.Patella			L.Thigh.Superior			L.Thigh.Lateral			L.Thigh.Inferior			L.Patella			L.Shank.Superior			L.Shank.Lateral			L.Shank.Inferior			R.Shank.Superior			R.Shank.Lateral			R.Shank.Inferior			R.Heel			R.Midfoot.Superior			R.Midfoot.Lateral			R.Toe			L.Heel			L.Midfoot.Lateral			L.Midfoot.Superior			L.Toe			L.Elbow			L.Wrist			R.Elbow			R.Wrist			
		X1	Y1	Z1	X2	Y2	Z2	X3	Y3	Z3	X4	Y4	Z4	X5	Y5	Z5	X6	Y6	Z6	X7	Y7	Z7	X8	Y8	Z8	X9	Y9	Z9	X10	Y10	Z10	X11	Y11	Z11	X12	Y12	Z12	X13	Y13	Z13	X14	Y14	Z14	X15	Y15	Z15	X16	Y16	Z16	X17	Y17	Z17	X18	Y18	Z18	X19	Y19	Z19	X20	Y20	Z20	X21	Y21	Z21	X22	Y22	Z22	X23	Y23	Z23	X24	Y24	Z24	X25	Y25	Z25	X26	Y26	Z26	X27	Y27	Z27	X28	Y28	Z28	X29	Y29	Z29	X30	Y30	Z30	X31	Y31	Z31	X32	Y32	Z32	X33	Y33	Z33	

18	42.045857142857	706.530182313294	1012.846774720654	438.688554379757	925.422397294995	1420.724923204957	254.114352280565	1006.674167206628	1355.269237310122	428.240847816985	911.042087878177	1445.575058837282	588.670887387951	911.817171240876	1490.606279808989	401.374156024752	919.961803945517	940.784460635672	576.325527548013	934.388862920766	958.998142370894	300.143161364515	988.941571545217	762.189807670169	552.751518777965	937.295489528122	644.478328222312	623.032670971078	1025.924713589878	602.221519438790	543.785583137635	1057.643348414955	522.637551422515	559.002633031711	939.073676232358	735.978455498899	333.311171414386	832.148209901189	637.435626046802	265.868691271199	891.334064967392	547.298982078383	335.122465304972	879.349065935384	481.062667263710	344.964569802985	850.318844339852	414.381325716476	336.173299113094	759.059747988465	303.497449818259	280.151243653404	797.942137150877	191.842989101791	358.819605425100	1047.272897463343	438.465390095196	569.227574957417	1004.075359454050	321.849246799783	633.733941285506	1079.149853966041	240.849244078966	581.179169729555	1000.245945919443	46.883416569069	553.471925327957	1158.346159618476	132.430164928261	592.399220917197	1085.578791536411	50.728094131276	626.436532544763	1285.246828947208	104.012108734494	616.642438977241	661.849673190034	38.777775608244	397.499152195970	739.909942914810	35.157311925574	320.895723343250	821.761652247411	95.440345765400	351.398157243898	951.487680131002	42.597373072997	331.168940885451	932.142274955624	1080.722773150005	107.450775664441	1164.373182937261	967.271444060299	93.278410013820	742.436974947195	1156.692275685208	717.562995202381	700.730142163181	899.711432395689	744.701220368832	
19	42.059142857143	707.908432937182	1011.541991318310	440.357170352185	925.925646146570	1419.981525907967	256.731875228941	1007.055700382050	1354.522239417485	430.854007763801	911.049995693653	1444.466780814177	591.293680695879	911.891042637765	1489.626398632924	404.051833739639	921.253139889868	939.182679990352	578.145367854502	936.129325598765	958.211011013620	301.866165213535	989.156693931222	759.620059640534	554.846066138072	935.635721161044	641.644166846847	623.923914083238	1024.596890788741	599.416174086001	545.186402427369	1055.528126606703	520.401100491718	559.556193235143	938.321849266979	734.629026062425	334.677279004052	830.016186043483	637.283118362051	266.724441638460	888.018799307315	546.378835543094	335.778942443148	875.642560463209	480.119297503619	345.390812790724	845.827652528879	413.884731913987	336.589858701682	753.700280711181	303.716468467140	280.439659827458	791.929353098614	191.631151791363	358.910417368591	1045.811025492402	436.063714419340	569.361563951812	1003.161586866992	318.913188928238	633.063538240033	1079.074636395016	238.733904242104	580.464900246658	1001.397983316006	45.216890591721	551.838552819700	1159.371082697146	130.407318370494	591.456215890042	1086.465649856165	48.915548974344	624.983778728409	1286.025316654365	101.724265319679	615.574755582021	655.156873212711	38.797325641782	397.472535054656	733.208571490747	35.140549017905	320.921613329565	815.070079523486	95.398845958756	351.405435172910	944.754156674879	42.472572083395	331.186805883964	932.330550981852	1080.083806136906	109.944060633828	1166.160943322569	970.421387861487	96.654394170483	741.696505244618	1155.563337049123	718.510799632498	700.925957137800	898.087405023125	743.624687995725	
20	42.072428571429	709.482301793491	1010.078322859435	442.228271657100	926.262132222721	1419.224525420962	259.561894863191	1007.397731094693	1353.821505395594	433.653469261280	910.936526412556	1443.239894642708	594.153817173104	911.790217706158	1488.597153119215	406.963134701551	922.879549841586	937.481983934211	579.994906361663	937.929059976169	957.335139879177	303.720041925278	990.106506356876	757.230910176604	556.770488301093	934.777674517475	638.881275156739	624.527808466353	1024.104013936386	596.830210739335	546.365774524171	1054.165237615010	518.010979419907	559.927177263088	937.848775009953	733.212963460398	335.973548072102	828.086890902100	637.093834106984	267.687350405795	884.991871152970	545.407974946137	336.469751832708	872.228920190683	479.082121801642	345.902578294712	841.583173035641	413.320238911947	337.086100114629	748.473885392722	303.954541510929	280.820938120006	785.998776815199	191.394769191025	359.042921773679	1044.487845590086	433.243019640976	569.243930805357	1001.398678631158	315.957656009199	632.108382529264	1077.347338730902	235.995532308359	579.481743928685	999.059351262265	44.045144727351	550.103537689690	1157.627635514850	127.154398391208	590.104591175790	1083.858462164198	46.923711980571	623.438513095213	1283.748326089562	97.008114208752	614.251713310341	648.463703539624	38.808177250879	397.439807263976	726.515351477366	35.122198550786	320.955883647953	808.380402441381	95.365463223111	351.422958789429	938.031455222876	42.332533244733	331.194780478509	932.197815043907	1079.346268947803	112.721478115786	1167.331529817652	972.902460497319	100.305790504143	741.602641991583	1153.859860204523	719.863265375691	702.623598275625	895.745589922340	742.755806400806	
21	42.085714285714	711.226688082398	1008.501835245019	444.289318946912	926.450384500564	1418.476975370960	262.605902163354	1007.719825662784	1353.175605022130	436.639154854723	910.733737860205	1441.908546842200	597.254705095472	911.553686870817	1487.546139741264	410.112622785880	924.812273914976	935.721135248550	581.866410670896	939.769530266000	956.401889147153	305.696495907038	991.725774970551	755.014685324018	558.508232315292	934.660734566651	636.253944116993	624.881778035331	1024.357577204235	594.490983416957	547.316123680084	1053.464261119467	515.537538151878	560.087382048406	937.675990040510	731.756798013658	337.197174892829	826.415681386546	636.861421521107	268.777538590333	882.330070705262	544.394433780250	337.221421916106	869.185775392984	477.950032837411	346.527115770292	837.661059678446	412.674591346349	337.689242821242	743.439409767887	304.218264946307	281.316711619832	780.176455043617	191.132755575906	359.233398948635	1043.356789938713	430.122312371758	568.910998400220	999.052191872343	313.020724258567	630.976468710308	1074.348385367519	232.753214406885	578.294071389893	993.890373222996	43.235918732953	548.397669279378	1153.646154009761	122.941166942915	588.420575794795	1078.455514101764	44.819857053981	621.906648448646	1279.059201251447	90.406097075432	612.705887503335	641.770622318472	38.835982530364	397.399245879401	719.835613472838	35.113249839947	320.999801101284	801.705265773540	95.345025149945	351.453650673312	931.330910613611	42.169358968733	331.191476341625	931.752354524681	1078.525051557458	115.789844802196	1167.894634844766	974.668003876516	104.203213757557	742.139557620125	1151.618279052872	721.616318371671	705.775620285700	892.757269659458	742.147685838157	
